<svg width="16" height="17" viewBox="0 0 16 17" fill="none" xmlns="http://www.w3.org/2000/svg">
<path d="M15.8759 8.68466C15.8759 8.00119 15.8223 7.50244 15.7063 6.98523H8.16162V10.0701H12.5902C12.5009 10.8367 12.0188 11.9912 10.9473 12.767L10.9323 12.8703L13.3178 14.7819L13.483 14.799C15.0009 13.3489 15.8759 11.2153 15.8759 8.68466" fill="#4285F4"/>
<path d="M8.16099 16.8125C10.3306 16.8125 12.152 16.0735 13.4824 14.799L10.9467 12.767C10.2681 13.2565 9.35738 13.5982 8.16099 13.5982C6.03601 13.5982 4.23246 12.1482 3.58954 10.1439L3.4953 10.1522L1.01486 12.138L0.982422 12.2313C2.30383 14.9467 5.01811 16.8125 8.16099 16.8125Z" fill="#34A853"/>
<path d="M3.58998 10.144C3.42034 9.62683 3.32216 9.07262 3.32216 8.50001C3.32216 7.92733 3.42034 7.37319 3.58105 6.85597L3.57656 6.74582L1.06503 4.72815L0.982854 4.76858C0.438236 5.8954 0.125732 7.16077 0.125732 8.50001C0.125732 9.83924 0.438236 11.1045 0.982854 12.2314L3.58998 10.144" fill="#FBBC05"/>
<path d="M8.16103 3.40164C9.66993 3.40164 10.6878 4.07588 11.2682 4.63932L13.536 2.34875C12.1432 1.00952 10.3306 0.1875 8.16103 0.1875C5.01814 0.1875 2.30384 2.05318 0.982422 4.76857L3.58063 6.85596C4.23248 4.85173 6.03604 3.40164 8.16103 3.40164" fill="#EB4335"/>
</svg>
