<svg width="16" height="16" viewBox="0 0 16 16" fill="none" xmlns="http://www.w3.org/2000/svg">
<path d="M15.875 8C15.875 12.347 12.3509 15.875 8 15.875C3.64906 15.875 0.125 12.347 0.125 8C0.125 3.64906 3.64906 0.125 8 0.125C12.3509 0.125 15.875 3.64906 15.875 8Z" fill="#283544"/>
<path d="M11.6912 6.00728C11.6482 6.03235 10.6252 6.5614 10.6252 7.73442C10.6734 9.07218 11.9162 9.54132 11.9375 9.54132C11.9162 9.56639 11.7499 10.1804 11.2573 10.8241C10.8663 11.3785 10.4324 11.9375 9.77344 11.9375C9.14665 11.9375 8.92165 11.568 8.19844 11.568C7.42177 11.568 7.20201 11.9375 6.60736 11.9375C5.94843 11.9375 5.48236 11.3485 5.07009 10.7993C4.53449 10.0805 4.07925 8.95237 4.06318 7.8692C4.05235 7.29523 4.17044 6.73102 4.47021 6.25178C4.8933 5.58274 5.64866 5.12857 6.47355 5.1136C7.10558 5.09374 7.66808 5.51795 8.05379 5.51795C8.42344 5.51795 9.11451 5.1136 9.89642 5.1136C10.2339 5.11392 11.1339 5.20866 11.6912 6.00728ZM8.00034 4.999C7.88784 4.47483 8.19844 3.95067 8.48772 3.61631C8.85737 3.21195 9.44118 2.9375 9.94464 2.9375C9.97678 3.46166 9.77309 3.97574 9.40904 4.35014C9.08237 4.75449 8.51987 5.0589 8.00034 4.999Z" fill="white"/>
</svg>
